<mxfile host="Electron" agent="Mozilla/5.0 (Windows NT 10.0; Win64; x64) AppleWebKit/537.36 (KHTML, like Gecko) draw.io/24.7.17 Chrome/128.0.6613.36 Electron/32.0.1 Safari/537.36" version="24.7.17">
  <diagram name="Page-1" id="YLMtnD6Yo0MYSwCP6VA5">
    <mxGraphModel dx="2564" dy="168" grid="1" gridSize="10" guides="1" tooltips="1" connect="1" arrows="1" fold="1" page="1" pageScale="1" pageWidth="850" pageHeight="1100" math="0" shadow="0">
      <root>
        <mxCell id="0" />
        <mxCell id="1" parent="0" />
        <mxCell id="Lh8Yi4r7tuQrUlTpJrNe-11" style="edgeStyle=orthogonalEdgeStyle;rounded=0;orthogonalLoop=1;jettySize=auto;html=1;exitX=1;exitY=1;exitDx=0;exitDy=0;strokeColor=#000000;strokeWidth=2;endArrow=none;endFill=0;" edge="1" parent="1" source="DidzBYZ28UQ_ziwSV_jG-1" target="Lh8Yi4r7tuQrUlTpJrNe-10">
          <mxGeometry relative="1" as="geometry" />
        </mxCell>
        <mxCell id="DidzBYZ28UQ_ziwSV_jG-1" value="User" style="rounded=0;whiteSpace=wrap;html=1;fillColor=#FFFFFF;fontStyle=1;fontColor=#000000;strokeColor=#000000;strokeWidth=2;" parent="1" vertex="1">
          <mxGeometry x="-150" y="270" width="120" height="60" as="geometry" />
        </mxCell>
        <mxCell id="DidzBYZ28UQ_ziwSV_jG-3" value="Report" style="rounded=0;whiteSpace=wrap;html=1;fillColor=#FFFFFF;fontStyle=1;fontColor=#000000;strokeColor=#000000;strokeWidth=2;" parent="1" vertex="1">
          <mxGeometry x="-930" y="270" width="120" height="60" as="geometry" />
        </mxCell>
        <mxCell id="Lh8Yi4r7tuQrUlTpJrNe-2" value="&lt;span&gt;Ticket&lt;/span&gt;" style="shape=ext;margin=3;double=1;whiteSpace=wrap;html=1;align=center;fillColor=#FFFFFF;fontColor=#030303;strokeColor=#030303;strokeWidth=2;fontStyle=1" vertex="1" parent="1">
          <mxGeometry x="170" y="290" width="120" height="60" as="geometry" />
        </mxCell>
        <mxCell id="Lh8Yi4r7tuQrUlTpJrNe-6" value="Booking" style="rounded=0;whiteSpace=wrap;html=1;fillColor=#FFFFFF;fontStyle=1;fontColor=#000000;strokeColor=#000000;strokeWidth=2;" vertex="1" parent="1">
          <mxGeometry x="250" y="800" width="120" height="60" as="geometry" />
        </mxCell>
        <mxCell id="Lh8Yi4r7tuQrUlTpJrNe-7" value="Resource" style="rounded=0;whiteSpace=wrap;html=1;fillColor=#FFFFFF;fontStyle=1;fontColor=#000000;strokeColor=#000000;strokeWidth=2;" vertex="1" parent="1">
          <mxGeometry x="400" y="800" width="120" height="60" as="geometry" />
        </mxCell>
        <mxCell id="Lh8Yi4r7tuQrUlTpJrNe-8" value="SponsorShip" style="rounded=0;whiteSpace=wrap;html=1;fillColor=#FFFFFF;fontStyle=1;fontColor=#000000;strokeColor=#000000;strokeWidth=2;" vertex="1" parent="1">
          <mxGeometry x="250" y="910" width="120" height="60" as="geometry" />
        </mxCell>
        <mxCell id="Lh8Yi4r7tuQrUlTpJrNe-9" value="VendroService" style="rounded=0;whiteSpace=wrap;html=1;fillColor=#FFFFFF;fontStyle=1;fontColor=#000000;strokeColor=#000000;strokeWidth=2;" vertex="1" parent="1">
          <mxGeometry x="410" y="910" width="120" height="60" as="geometry" />
        </mxCell>
        <mxCell id="Lh8Yi4r7tuQrUlTpJrNe-10" value="&lt;u&gt;User_Id&lt;/u&gt;" style="ellipse;whiteSpace=wrap;html=1;fontColor=#000000;fillColor=#FFFFFF;strokeWidth=2;strokeColor=#000000;fontStyle=1" vertex="1" parent="1">
          <mxGeometry x="-40" y="380" width="120" height="80" as="geometry" />
        </mxCell>
        <mxCell id="Lh8Yi4r7tuQrUlTpJrNe-12" value="User_Name" style="ellipse;whiteSpace=wrap;html=1;fontColor=#000000;fillColor=#FFFFFF;strokeWidth=2;strokeColor=#000000;fontStyle=1" vertex="1" parent="1">
          <mxGeometry x="-250" y="390" width="120" height="80" as="geometry" />
        </mxCell>
        <mxCell id="Lh8Yi4r7tuQrUlTpJrNe-13" style="edgeStyle=orthogonalEdgeStyle;rounded=0;orthogonalLoop=1;jettySize=auto;html=1;exitX=0;exitY=1;exitDx=0;exitDy=0;strokeColor=#000000;strokeWidth=2;endArrow=none;endFill=0;" edge="1" target="Lh8Yi4r7tuQrUlTpJrNe-12" parent="1" source="DidzBYZ28UQ_ziwSV_jG-1">
          <mxGeometry relative="1" as="geometry">
            <mxPoint x="-190" y="330" as="sourcePoint" />
          </mxGeometry>
        </mxCell>
        <mxCell id="Lh8Yi4r7tuQrUlTpJrNe-14" value="Email" style="ellipse;whiteSpace=wrap;html=1;fontColor=#000000;fillColor=#FFFFFF;strokeWidth=2;strokeColor=#000000;fontStyle=1" vertex="1" parent="1">
          <mxGeometry x="-210" y="520" width="120" height="80" as="geometry" />
        </mxCell>
        <mxCell id="Lh8Yi4r7tuQrUlTpJrNe-15" style="edgeStyle=orthogonalEdgeStyle;rounded=0;orthogonalLoop=1;jettySize=auto;html=1;exitX=0.25;exitY=1;exitDx=0;exitDy=0;strokeColor=#000000;strokeWidth=2;endArrow=none;endFill=0;" edge="1" target="Lh8Yi4r7tuQrUlTpJrNe-14" parent="1" source="DidzBYZ28UQ_ziwSV_jG-1">
          <mxGeometry relative="1" as="geometry">
            <mxPoint x="-90" y="330" as="sourcePoint" />
            <Array as="points">
              <mxPoint x="-120" y="500" />
              <mxPoint x="-150" y="500" />
            </Array>
          </mxGeometry>
        </mxCell>
        <mxCell id="Lh8Yi4r7tuQrUlTpJrNe-16" value="Password" style="ellipse;whiteSpace=wrap;html=1;fontColor=#000000;fillColor=#FFFFFF;strokeWidth=2;strokeColor=#000000;fontStyle=1" vertex="1" parent="1">
          <mxGeometry x="-70" y="530" width="120" height="80" as="geometry" />
        </mxCell>
        <mxCell id="Lh8Yi4r7tuQrUlTpJrNe-17" style="edgeStyle=orthogonalEdgeStyle;rounded=0;orthogonalLoop=1;jettySize=auto;html=1;exitX=0.75;exitY=1;exitDx=0;exitDy=0;strokeColor=#000000;strokeWidth=2;endArrow=none;endFill=0;" edge="1" target="Lh8Yi4r7tuQrUlTpJrNe-16" parent="1" source="DidzBYZ28UQ_ziwSV_jG-1">
          <mxGeometry relative="1" as="geometry">
            <mxPoint y="330" as="sourcePoint" />
            <Array as="points">
              <mxPoint x="-60" y="500" />
              <mxPoint x="-10" y="500" />
            </Array>
          </mxGeometry>
        </mxCell>
        <mxCell id="Lh8Yi4r7tuQrUlTpJrNe-18" value="User_Type" style="ellipse;whiteSpace=wrap;html=1;fontColor=#000000;fillColor=#FFFFFF;strokeWidth=2;strokeColor=#000000;fontStyle=1" vertex="1" parent="1">
          <mxGeometry x="-230" y="130" width="120" height="80" as="geometry" />
        </mxCell>
        <mxCell id="Lh8Yi4r7tuQrUlTpJrNe-20" style="rounded=0;orthogonalLoop=1;jettySize=auto;html=1;strokeColor=#000000;strokeWidth=2;endArrow=none;endFill=0;entryX=1;entryY=0;entryDx=0;entryDy=0;edgeStyle=orthogonalEdgeStyle;" edge="1" target="DidzBYZ28UQ_ziwSV_jG-1" parent="1" source="Lh8Yi4r7tuQrUlTpJrNe-24">
          <mxGeometry relative="1" as="geometry">
            <mxPoint x="-10" y="210" as="sourcePoint" />
            <mxPoint x="100" y="290" as="targetPoint" />
          </mxGeometry>
        </mxCell>
        <mxCell id="Lh8Yi4r7tuQrUlTpJrNe-23" style="rounded=0;orthogonalLoop=1;jettySize=auto;html=1;exitX=0.5;exitY=1;exitDx=0;exitDy=0;strokeColor=#000000;strokeWidth=2;endArrow=none;endFill=0;entryX=0;entryY=0;entryDx=0;entryDy=0;edgeStyle=orthogonalEdgeStyle;" edge="1" parent="1" source="Lh8Yi4r7tuQrUlTpJrNe-18" target="DidzBYZ28UQ_ziwSV_jG-1">
          <mxGeometry relative="1" as="geometry">
            <mxPoint x="-120" y="200" as="sourcePoint" />
            <mxPoint x="-120" y="260" as="targetPoint" />
          </mxGeometry>
        </mxCell>
        <mxCell id="Lh8Yi4r7tuQrUlTpJrNe-24" value="Event_preferences" style="ellipse;shape=doubleEllipse;margin=3;whiteSpace=wrap;html=1;align=center;fillColor=#FFFFFF;strokeWidth=2;strokeColor=#000000;fontColor=#000000;fontStyle=1" vertex="1" parent="1">
          <mxGeometry x="-60" y="130" width="120" height="80" as="geometry" />
        </mxCell>
        <mxCell id="Lh8Yi4r7tuQrUlTpJrNe-25" value="Contact_details" style="ellipse;shape=doubleEllipse;margin=3;whiteSpace=wrap;html=1;align=center;fillColor=#FFFFFF;strokeWidth=2;strokeColor=#000000;fontColor=#000000;fontStyle=1" vertex="1" parent="1">
          <mxGeometry x="-150" y="60" width="120" height="80" as="geometry" />
        </mxCell>
        <mxCell id="Lh8Yi4r7tuQrUlTpJrNe-26" style="rounded=0;orthogonalLoop=1;jettySize=auto;html=1;strokeColor=#000000;strokeWidth=2;endArrow=none;endFill=0;entryX=0.5;entryY=0;entryDx=0;entryDy=0;exitX=0.5;exitY=1;exitDx=0;exitDy=0;" edge="1" source="Lh8Yi4r7tuQrUlTpJrNe-25" parent="1" target="DidzBYZ28UQ_ziwSV_jG-1">
          <mxGeometry relative="1" as="geometry">
            <mxPoint x="-100" y="120" as="sourcePoint" />
            <mxPoint x="-70" y="270" as="targetPoint" />
          </mxGeometry>
        </mxCell>
        <mxCell id="Lh8Yi4r7tuQrUlTpJrNe-27" style="edgeStyle=orthogonalEdgeStyle;rounded=0;orthogonalLoop=1;jettySize=auto;html=1;exitX=1;exitY=1;exitDx=0;exitDy=0;strokeColor=#000000;strokeWidth=2;endArrow=none;endFill=0;" edge="1" source="Lh8Yi4r7tuQrUlTpJrNe-28" target="Lh8Yi4r7tuQrUlTpJrNe-29" parent="1">
          <mxGeometry relative="1" as="geometry" />
        </mxCell>
        <mxCell id="Lh8Yi4r7tuQrUlTpJrNe-28" value="Event" style="rounded=0;whiteSpace=wrap;html=1;fillColor=#FFFFFF;fontStyle=1;fontColor=#000000;strokeColor=#000000;strokeWidth=2;" vertex="1" parent="1">
          <mxGeometry x="-530" y="270" width="120" height="60" as="geometry" />
        </mxCell>
        <mxCell id="Lh8Yi4r7tuQrUlTpJrNe-29" value="&lt;u&gt;Event_Id&lt;/u&gt;" style="ellipse;whiteSpace=wrap;html=1;fontColor=#000000;fillColor=#FFFFFF;strokeWidth=2;strokeColor=#000000;fontStyle=1" vertex="1" parent="1">
          <mxGeometry x="-420" y="380" width="120" height="80" as="geometry" />
        </mxCell>
        <mxCell id="Lh8Yi4r7tuQrUlTpJrNe-30" value="Location" style="ellipse;whiteSpace=wrap;html=1;fontColor=#000000;fillColor=#FFFFFF;strokeWidth=2;strokeColor=#000000;fontStyle=1" vertex="1" parent="1">
          <mxGeometry x="-630" y="390" width="120" height="80" as="geometry" />
        </mxCell>
        <mxCell id="Lh8Yi4r7tuQrUlTpJrNe-31" style="edgeStyle=orthogonalEdgeStyle;rounded=0;orthogonalLoop=1;jettySize=auto;html=1;exitX=0;exitY=1;exitDx=0;exitDy=0;strokeColor=#000000;strokeWidth=2;endArrow=none;endFill=0;" edge="1" source="Lh8Yi4r7tuQrUlTpJrNe-28" target="Lh8Yi4r7tuQrUlTpJrNe-30" parent="1">
          <mxGeometry relative="1" as="geometry">
            <mxPoint x="-570" y="330" as="sourcePoint" />
          </mxGeometry>
        </mxCell>
        <mxCell id="Lh8Yi4r7tuQrUlTpJrNe-32" value="Description" style="ellipse;whiteSpace=wrap;html=1;fontColor=#000000;fillColor=#FFFFFF;strokeWidth=2;strokeColor=#000000;fontStyle=1" vertex="1" parent="1">
          <mxGeometry x="-590" y="520" width="120" height="80" as="geometry" />
        </mxCell>
        <mxCell id="Lh8Yi4r7tuQrUlTpJrNe-33" style="edgeStyle=orthogonalEdgeStyle;rounded=0;orthogonalLoop=1;jettySize=auto;html=1;exitX=0.25;exitY=1;exitDx=0;exitDy=0;strokeColor=#000000;strokeWidth=2;endArrow=none;endFill=0;" edge="1" source="Lh8Yi4r7tuQrUlTpJrNe-28" target="Lh8Yi4r7tuQrUlTpJrNe-32" parent="1">
          <mxGeometry relative="1" as="geometry">
            <mxPoint x="-470" y="330" as="sourcePoint" />
            <Array as="points">
              <mxPoint x="-500" y="500" />
              <mxPoint x="-530" y="500" />
            </Array>
          </mxGeometry>
        </mxCell>
        <mxCell id="Lh8Yi4r7tuQrUlTpJrNe-34" value="Title" style="ellipse;whiteSpace=wrap;html=1;fontColor=#000000;fillColor=#FFFFFF;strokeWidth=2;strokeColor=#000000;fontStyle=1" vertex="1" parent="1">
          <mxGeometry x="-450" y="530" width="120" height="80" as="geometry" />
        </mxCell>
        <mxCell id="Lh8Yi4r7tuQrUlTpJrNe-35" style="edgeStyle=orthogonalEdgeStyle;rounded=0;orthogonalLoop=1;jettySize=auto;html=1;exitX=0.75;exitY=1;exitDx=0;exitDy=0;strokeColor=#000000;strokeWidth=2;endArrow=none;endFill=0;" edge="1" source="Lh8Yi4r7tuQrUlTpJrNe-28" target="Lh8Yi4r7tuQrUlTpJrNe-34" parent="1">
          <mxGeometry relative="1" as="geometry">
            <mxPoint x="-380" y="330" as="sourcePoint" />
            <Array as="points">
              <mxPoint x="-440" y="500" />
              <mxPoint x="-390" y="500" />
            </Array>
          </mxGeometry>
        </mxCell>
        <mxCell id="Lh8Yi4r7tuQrUlTpJrNe-36" value="Category" style="ellipse;whiteSpace=wrap;html=1;fontColor=#000000;fillColor=#FFFFFF;strokeWidth=2;strokeColor=#000000;fontStyle=1" vertex="1" parent="1">
          <mxGeometry x="-610" y="130" width="120" height="80" as="geometry" />
        </mxCell>
        <mxCell id="Lh8Yi4r7tuQrUlTpJrNe-37" style="rounded=0;orthogonalLoop=1;jettySize=auto;html=1;strokeColor=#000000;strokeWidth=2;endArrow=none;endFill=0;entryX=1;entryY=0;entryDx=0;entryDy=0;edgeStyle=orthogonalEdgeStyle;exitX=0.5;exitY=1;exitDx=0;exitDy=0;" edge="1" source="Lh8Yi4r7tuQrUlTpJrNe-43" target="Lh8Yi4r7tuQrUlTpJrNe-28" parent="1">
          <mxGeometry relative="1" as="geometry">
            <mxPoint x="-380" y="210" as="sourcePoint" />
            <mxPoint x="-280" y="290" as="targetPoint" />
          </mxGeometry>
        </mxCell>
        <mxCell id="Lh8Yi4r7tuQrUlTpJrNe-38" style="rounded=0;orthogonalLoop=1;jettySize=auto;html=1;exitX=0.5;exitY=1;exitDx=0;exitDy=0;strokeColor=#000000;strokeWidth=2;endArrow=none;endFill=0;entryX=0;entryY=0;entryDx=0;entryDy=0;edgeStyle=orthogonalEdgeStyle;" edge="1" source="Lh8Yi4r7tuQrUlTpJrNe-36" target="Lh8Yi4r7tuQrUlTpJrNe-28" parent="1">
          <mxGeometry relative="1" as="geometry">
            <mxPoint x="-500" y="200" as="sourcePoint" />
            <mxPoint x="-500" y="260" as="targetPoint" />
          </mxGeometry>
        </mxCell>
        <mxCell id="Lh8Yi4r7tuQrUlTpJrNe-41" style="rounded=0;orthogonalLoop=1;jettySize=auto;html=1;strokeColor=#000000;strokeWidth=2;endArrow=none;endFill=0;entryX=0.5;entryY=0;entryDx=0;entryDy=0;exitX=0.5;exitY=1;exitDx=0;exitDy=0;" edge="1" source="Lh8Yi4r7tuQrUlTpJrNe-42" target="Lh8Yi4r7tuQrUlTpJrNe-28" parent="1">
          <mxGeometry relative="1" as="geometry">
            <mxPoint x="-470" y="140" as="sourcePoint" />
            <mxPoint x="-450" y="270" as="targetPoint" />
          </mxGeometry>
        </mxCell>
        <mxCell id="Lh8Yi4r7tuQrUlTpJrNe-42" value="Start_Date" style="ellipse;whiteSpace=wrap;html=1;fontColor=#000000;fillColor=#FFFFFF;strokeWidth=2;strokeColor=#000000;fontStyle=1" vertex="1" parent="1">
          <mxGeometry x="-530" y="40" width="120" height="80" as="geometry" />
        </mxCell>
        <mxCell id="Lh8Yi4r7tuQrUlTpJrNe-43" value="End_Date" style="ellipse;whiteSpace=wrap;html=1;fontColor=#000000;fillColor=#FFFFFF;strokeWidth=2;strokeColor=#000000;fontStyle=1" vertex="1" parent="1">
          <mxGeometry x="-440" y="120" width="120" height="80" as="geometry" />
        </mxCell>
        <mxCell id="Lh8Yi4r7tuQrUlTpJrNe-44" value="&lt;u&gt;Report_Id&lt;/u&gt;" style="ellipse;whiteSpace=wrap;html=1;fontColor=#000000;fillColor=#FFFFFF;strokeWidth=2;strokeColor=#000000;fontStyle=1" vertex="1" parent="1">
          <mxGeometry x="-990" y="400" width="120" height="80" as="geometry" />
        </mxCell>
        <mxCell id="Lh8Yi4r7tuQrUlTpJrNe-45" style="edgeStyle=orthogonalEdgeStyle;rounded=0;orthogonalLoop=1;jettySize=auto;html=1;exitX=0.25;exitY=1;exitDx=0;exitDy=0;strokeColor=#000000;strokeWidth=2;endArrow=none;endFill=0;" edge="1" target="Lh8Yi4r7tuQrUlTpJrNe-44" parent="1" source="DidzBYZ28UQ_ziwSV_jG-3">
          <mxGeometry relative="1" as="geometry">
            <mxPoint x="-900" y="340" as="sourcePoint" />
          </mxGeometry>
        </mxCell>
        <mxCell id="Lh8Yi4r7tuQrUlTpJrNe-46" value="Report_type" style="ellipse;whiteSpace=wrap;html=1;fontColor=#000000;fillColor=#FFFFFF;strokeWidth=2;strokeColor=#000000;fontStyle=1" vertex="1" parent="1">
          <mxGeometry x="-860" y="400" width="120" height="80" as="geometry" />
        </mxCell>
        <mxCell id="Lh8Yi4r7tuQrUlTpJrNe-47" style="edgeStyle=orthogonalEdgeStyle;rounded=0;orthogonalLoop=1;jettySize=auto;html=1;exitX=0.75;exitY=1;exitDx=0;exitDy=0;strokeColor=#000000;strokeWidth=2;endArrow=none;endFill=0;" edge="1" target="Lh8Yi4r7tuQrUlTpJrNe-46" parent="1" source="DidzBYZ28UQ_ziwSV_jG-3">
          <mxGeometry relative="1" as="geometry">
            <mxPoint x="-770" y="330" as="sourcePoint" />
          </mxGeometry>
        </mxCell>
        <mxCell id="Lh8Yi4r7tuQrUlTpJrNe-48" value="Generated_Date" style="ellipse;whiteSpace=wrap;html=1;fontColor=#000000;fillColor=#FFFFFF;strokeWidth=2;strokeColor=#000000;fontStyle=1" vertex="1" parent="1">
          <mxGeometry x="-850" y="140" width="120" height="80" as="geometry" />
        </mxCell>
        <mxCell id="Lh8Yi4r7tuQrUlTpJrNe-49" style="edgeStyle=orthogonalEdgeStyle;rounded=0;orthogonalLoop=1;jettySize=auto;html=1;strokeColor=#000000;strokeWidth=2;endArrow=none;endFill=0;entryX=0.5;entryY=1;entryDx=0;entryDy=0;exitX=0.75;exitY=0;exitDx=0;exitDy=0;" edge="1" target="Lh8Yi4r7tuQrUlTpJrNe-48" parent="1" source="DidzBYZ28UQ_ziwSV_jG-3">
          <mxGeometry relative="1" as="geometry">
            <mxPoint x="-890" y="200" as="sourcePoint" />
          </mxGeometry>
        </mxCell>
        <mxCell id="Lh8Yi4r7tuQrUlTpJrNe-50" style="edgeStyle=orthogonalEdgeStyle;rounded=0;orthogonalLoop=1;jettySize=auto;html=1;strokeColor=#000000;strokeWidth=2;endArrow=none;endFill=0;entryX=0.5;entryY=1;entryDx=0;entryDy=0;exitX=0.25;exitY=0;exitDx=0;exitDy=0;" edge="1" target="Lh8Yi4r7tuQrUlTpJrNe-51" parent="1" source="DidzBYZ28UQ_ziwSV_jG-3">
          <mxGeometry relative="1" as="geometry">
            <mxPoint x="-900" y="270" as="sourcePoint" />
          </mxGeometry>
        </mxCell>
        <mxCell id="Lh8Yi4r7tuQrUlTpJrNe-51" value="Details" style="ellipse;whiteSpace=wrap;html=1;fontColor=#000000;fillColor=#FFFFFF;strokeWidth=2;strokeColor=#000000;fontStyle=1" vertex="1" parent="1">
          <mxGeometry x="-1010" y="140" width="120" height="80" as="geometry" />
        </mxCell>
        <mxCell id="Lh8Yi4r7tuQrUlTpJrNe-52" style="edgeStyle=orthogonalEdgeStyle;rounded=0;orthogonalLoop=1;jettySize=auto;html=1;exitX=0.75;exitY=1;exitDx=0;exitDy=0;strokeColor=#000000;strokeWidth=2;endArrow=none;endFill=0;" edge="1" target="Lh8Yi4r7tuQrUlTpJrNe-53" parent="1" source="Lh8Yi4r7tuQrUlTpJrNe-2">
          <mxGeometry relative="1" as="geometry">
            <mxPoint x="270" y="350" as="sourcePoint" />
          </mxGeometry>
        </mxCell>
        <mxCell id="Lh8Yi4r7tuQrUlTpJrNe-53" value="&lt;u&gt;Ticket_id&lt;/u&gt;" style="ellipse;whiteSpace=wrap;html=1;fontColor=#000000;fillColor=#FFFFFF;strokeWidth=2;strokeColor=#000000;fontStyle=1" vertex="1" parent="1">
          <mxGeometry x="250" y="400" width="120" height="80" as="geometry" />
        </mxCell>
        <mxCell id="Lh8Yi4r7tuQrUlTpJrNe-54" value="Ticket_Type" style="ellipse;whiteSpace=wrap;html=1;fontColor=#000000;fillColor=#FFFFFF;strokeWidth=2;strokeColor=#000000;fontStyle=1" vertex="1" parent="1">
          <mxGeometry x="110" y="400" width="120" height="80" as="geometry" />
        </mxCell>
        <mxCell id="Lh8Yi4r7tuQrUlTpJrNe-55" style="edgeStyle=orthogonalEdgeStyle;rounded=0;orthogonalLoop=1;jettySize=auto;html=1;strokeColor=#000000;strokeWidth=2;endArrow=none;endFill=0;exitX=0.25;exitY=1;exitDx=0;exitDy=0;" edge="1" target="Lh8Yi4r7tuQrUlTpJrNe-54" parent="1" source="Lh8Yi4r7tuQrUlTpJrNe-2">
          <mxGeometry relative="1" as="geometry">
            <mxPoint x="200" y="360" as="sourcePoint" />
          </mxGeometry>
        </mxCell>
        <mxCell id="Lh8Yi4r7tuQrUlTpJrNe-56" value="Price" style="ellipse;whiteSpace=wrap;html=1;fontColor=#000000;fillColor=#FFFFFF;strokeWidth=2;strokeColor=#000000;fontStyle=1" vertex="1" parent="1">
          <mxGeometry x="120" y="170" width="120" height="80" as="geometry" />
        </mxCell>
        <mxCell id="Lh8Yi4r7tuQrUlTpJrNe-57" style="edgeStyle=orthogonalEdgeStyle;rounded=0;orthogonalLoop=1;jettySize=auto;html=1;strokeColor=#000000;strokeWidth=2;endArrow=none;endFill=0;exitX=0.25;exitY=0;exitDx=0;exitDy=0;entryX=0.5;entryY=1;entryDx=0;entryDy=0;" edge="1" target="Lh8Yi4r7tuQrUlTpJrNe-56" parent="1" source="Lh8Yi4r7tuQrUlTpJrNe-2">
          <mxGeometry relative="1" as="geometry">
            <mxPoint x="230" y="130" as="sourcePoint" />
            <Array as="points">
              <mxPoint x="200" y="270" />
              <mxPoint x="180" y="270" />
            </Array>
          </mxGeometry>
        </mxCell>
        <mxCell id="Lh8Yi4r7tuQrUlTpJrNe-58" value="&lt;span&gt;Feed_Back&lt;/span&gt;" style="shape=ext;margin=3;double=1;whiteSpace=wrap;html=1;align=center;fillColor=#FFFFFF;fontColor=#030303;strokeColor=#030303;strokeWidth=2;fontStyle=1" vertex="1" parent="1">
          <mxGeometry x="480" y="290" width="120" height="60" as="geometry" />
        </mxCell>
        <mxCell id="Lh8Yi4r7tuQrUlTpJrNe-59" style="edgeStyle=orthogonalEdgeStyle;rounded=0;orthogonalLoop=1;jettySize=auto;html=1;exitX=0.75;exitY=1;exitDx=0;exitDy=0;strokeColor=#000000;strokeWidth=2;endArrow=none;endFill=0;" edge="1" source="Lh8Yi4r7tuQrUlTpJrNe-58" target="Lh8Yi4r7tuQrUlTpJrNe-60" parent="1">
          <mxGeometry relative="1" as="geometry">
            <mxPoint x="580" y="350" as="sourcePoint" />
          </mxGeometry>
        </mxCell>
        <mxCell id="Lh8Yi4r7tuQrUlTpJrNe-60" value="&lt;u&gt;FeedBack_id&lt;/u&gt;" style="ellipse;whiteSpace=wrap;html=1;fontColor=#000000;fillColor=#FFFFFF;strokeWidth=2;strokeColor=#000000;fontStyle=1" vertex="1" parent="1">
          <mxGeometry x="560" y="400" width="120" height="80" as="geometry" />
        </mxCell>
        <mxCell id="Lh8Yi4r7tuQrUlTpJrNe-61" value="rating" style="ellipse;whiteSpace=wrap;html=1;fontColor=#000000;fillColor=#FFFFFF;strokeWidth=2;strokeColor=#000000;fontStyle=1" vertex="1" parent="1">
          <mxGeometry x="420" y="400" width="120" height="80" as="geometry" />
        </mxCell>
        <mxCell id="Lh8Yi4r7tuQrUlTpJrNe-62" style="edgeStyle=orthogonalEdgeStyle;rounded=0;orthogonalLoop=1;jettySize=auto;html=1;strokeColor=#000000;strokeWidth=2;endArrow=none;endFill=0;exitX=0.25;exitY=1;exitDx=0;exitDy=0;" edge="1" source="Lh8Yi4r7tuQrUlTpJrNe-58" target="Lh8Yi4r7tuQrUlTpJrNe-61" parent="1">
          <mxGeometry relative="1" as="geometry">
            <mxPoint x="510" y="360" as="sourcePoint" />
          </mxGeometry>
        </mxCell>
        <mxCell id="Lh8Yi4r7tuQrUlTpJrNe-63" value="Comments" style="ellipse;whiteSpace=wrap;html=1;fontColor=#000000;fillColor=#FFFFFF;strokeWidth=2;strokeColor=#000000;fontStyle=1" vertex="1" parent="1">
          <mxGeometry x="430" y="170" width="120" height="80" as="geometry" />
        </mxCell>
        <mxCell id="Lh8Yi4r7tuQrUlTpJrNe-64" style="edgeStyle=orthogonalEdgeStyle;rounded=0;orthogonalLoop=1;jettySize=auto;html=1;strokeColor=#000000;strokeWidth=2;endArrow=none;endFill=0;exitX=0.25;exitY=0;exitDx=0;exitDy=0;entryX=0.5;entryY=1;entryDx=0;entryDy=0;" edge="1" source="Lh8Yi4r7tuQrUlTpJrNe-58" target="Lh8Yi4r7tuQrUlTpJrNe-63" parent="1">
          <mxGeometry relative="1" as="geometry">
            <mxPoint x="540" y="130" as="sourcePoint" />
            <Array as="points">
              <mxPoint x="510" y="270" />
              <mxPoint x="490" y="270" />
            </Array>
          </mxGeometry>
        </mxCell>
        <mxCell id="Lh8Yi4r7tuQrUlTpJrNe-65" value="Profile" style="shape=ext;margin=3;double=1;whiteSpace=wrap;html=1;align=center;fillColor=#FFFFFF;fontColor=#030303;strokeColor=#030303;strokeWidth=2;fontStyle=1" vertex="1" parent="1">
          <mxGeometry x="780" y="290" width="120" height="60" as="geometry" />
        </mxCell>
        <mxCell id="Lh8Yi4r7tuQrUlTpJrNe-66" style="edgeStyle=orthogonalEdgeStyle;rounded=0;orthogonalLoop=1;jettySize=auto;html=1;exitX=0.75;exitY=1;exitDx=0;exitDy=0;strokeColor=#000000;strokeWidth=2;endArrow=none;endFill=0;" edge="1" source="Lh8Yi4r7tuQrUlTpJrNe-65" target="Lh8Yi4r7tuQrUlTpJrNe-67" parent="1">
          <mxGeometry relative="1" as="geometry">
            <mxPoint x="880" y="350" as="sourcePoint" />
          </mxGeometry>
        </mxCell>
        <mxCell id="Lh8Yi4r7tuQrUlTpJrNe-67" value="&lt;u&gt;Profile_Id&lt;/u&gt;" style="ellipse;whiteSpace=wrap;html=1;fontColor=#000000;fillColor=#FFFFFF;strokeWidth=2;strokeColor=#000000;fontStyle=1" vertex="1" parent="1">
          <mxGeometry x="860" y="400" width="120" height="80" as="geometry" />
        </mxCell>
        <mxCell id="Lh8Yi4r7tuQrUlTpJrNe-68" value="Business_Type" style="ellipse;whiteSpace=wrap;html=1;fontColor=#000000;fillColor=#FFFFFF;strokeWidth=2;strokeColor=#000000;fontStyle=1" vertex="1" parent="1">
          <mxGeometry x="720" y="400" width="120" height="80" as="geometry" />
        </mxCell>
        <mxCell id="Lh8Yi4r7tuQrUlTpJrNe-69" style="edgeStyle=orthogonalEdgeStyle;rounded=0;orthogonalLoop=1;jettySize=auto;html=1;strokeColor=#000000;strokeWidth=2;endArrow=none;endFill=0;exitX=0.25;exitY=1;exitDx=0;exitDy=0;" edge="1" source="Lh8Yi4r7tuQrUlTpJrNe-65" target="Lh8Yi4r7tuQrUlTpJrNe-68" parent="1">
          <mxGeometry relative="1" as="geometry">
            <mxPoint x="810" y="360" as="sourcePoint" />
          </mxGeometry>
        </mxCell>
        <mxCell id="Lh8Yi4r7tuQrUlTpJrNe-70" value="Preferences" style="ellipse;whiteSpace=wrap;html=1;fontColor=#000000;fillColor=#FFFFFF;strokeWidth=2;strokeColor=#000000;fontStyle=1" vertex="1" parent="1">
          <mxGeometry x="730" y="170" width="120" height="80" as="geometry" />
        </mxCell>
        <mxCell id="Lh8Yi4r7tuQrUlTpJrNe-71" style="edgeStyle=orthogonalEdgeStyle;rounded=0;orthogonalLoop=1;jettySize=auto;html=1;strokeColor=#000000;strokeWidth=2;endArrow=none;endFill=0;exitX=0.25;exitY=0;exitDx=0;exitDy=0;entryX=0.5;entryY=1;entryDx=0;entryDy=0;" edge="1" source="Lh8Yi4r7tuQrUlTpJrNe-65" target="Lh8Yi4r7tuQrUlTpJrNe-70" parent="1">
          <mxGeometry relative="1" as="geometry">
            <mxPoint x="840" y="130" as="sourcePoint" />
            <Array as="points">
              <mxPoint x="810" y="270" />
              <mxPoint x="790" y="270" />
            </Array>
          </mxGeometry>
        </mxCell>
      </root>
    </mxGraphModel>
  </diagram>
</mxfile>
